<svg width="152" height="682" viewBox="0 0 152 682" fill="none" xmlns="http://www.w3.org/2000/svg">
<g clip-path="url(#clip0_287_166)">
<path d="M100 21.3755H113.583C116.136 21.3755 118.208 23.4477 118.208 26.0003C118.208 28.553 116.136 30.6252 113.583 30.6252H100V21.3755Z" fill="#E55B3C"/>
<path d="M110.886 4.34595L120.491 13.9508C122.296 15.7558 122.296 18.6863 120.491 20.4913C118.686 22.2963 115.755 22.2963 113.95 20.4913L104.345 10.8865L110.886 4.34595Z" fill="#E55B3C"/>
<path d="M130.625 0.000244141V13.5835C130.625 16.1362 128.553 18.2084 126 18.2084C123.447 18.2084 121.375 16.1362 121.375 13.5835V0.000244141L130.625 0.000244141Z" fill="#E55B3C"/>
<path d="M147.656 10.886L138.051 20.4908C136.246 22.2958 133.316 22.2958 131.511 20.4908C129.706 18.6858 129.706 15.7553 131.511 13.9503L141.116 4.34545L147.656 10.886Z" fill="#E55B3C"/>
<path d="M152 30.625H138.417C135.864 30.625 133.792 28.5528 133.792 26.0001C133.792 23.4475 135.864 21.3753 138.417 21.3753H152V30.625Z" fill="#E55B3C"/>
<path d="M141.115 47.6553L131.51 38.0504C129.705 36.2454 129.705 33.3149 131.51 31.5099C133.315 29.7049 136.246 29.7049 138.051 31.5099L147.656 41.1147L141.115 47.6553Z" fill="#E55B3C"/>
<path d="M121.375 52.0002V38.417C121.375 35.8643 123.447 33.7921 126 33.7921C128.553 33.7921 130.625 35.8643 130.625 38.417V52.0002H121.375Z" fill="#E55B3C"/>
<path d="M104.345 41.1138L113.95 31.5089C115.755 29.7039 118.685 29.7039 120.49 31.5089C122.295 33.3139 122.295 36.2445 120.49 38.0495L110.885 47.6543L104.345 41.1138Z" fill="#E55B3C"/>
</g>
<path d="M15.377 131.495C10.4241 125.744 6.62303 119.304 3.97381 112.173C1.3246 105.042 -3.13203e-06 97.6527 -2.79771e-06 90.0044C-2.54132e-06 84.1388 0.777479 78.4745 2.33246 73.0114C3.82983 67.6058 5.96073 62.5166 8.72513 57.7436C11.5471 53.0281 14.9162 48.7151 18.8325 44.8047C22.7487 40.8943 27.0681 37.5302 31.7906 34.7124C36.5707 31.9521 41.6675 29.7956 47.0811 28.243C52.5524 26.7478 58.2251 26.0002 64.0995 26.0002C69.9738 26.0002 75.6466 26.7478 81.1178 28.243C86.589 29.7956 91.6859 31.9521 96.4084 34.7124C101.188 37.5302 105.537 40.8943 109.453 44.8047C113.369 48.7151 116.709 53.0281 119.474 57.7436C122.296 62.5166 124.455 67.6059 125.953 73.0114C127.508 78.4745 128.285 84.1388 128.285 90.0045C128.285 97.6528 126.961 105.042 124.312 112.173C121.72 119.304 117.919 125.744 112.908 131.495L91.3115 118.384C95.2277 114.761 98.2225 110.477 100.296 105.531C102.427 100.586 103.492 95.41 103.492 90.0045C103.492 84.5414 102.455 79.4233 100.382 74.6503C98.3089 69.8773 95.4869 65.7082 91.9162 62.1428C88.4031 58.5774 84.2277 55.7596 79.3901 53.6894C74.6099 51.6192 69.5131 50.5841 64.0995 50.5841C58.6859 50.5841 53.589 51.6192 48.8089 53.6894C44.0864 55.7596 39.9398 58.5774 36.3691 62.1428C32.7984 65.7082 29.9764 69.8773 27.9031 74.6503C25.8298 79.4233 24.7932 84.5414 24.7932 90.0045C24.7932 95.41 25.8298 100.586 27.9031 105.531C30.034 110.477 33.0576 114.761 36.9738 118.384L15.377 131.495Z" fill="#282828"/>
<path d="M49.7592 229.399C42.8482 229.399 36.3979 228.163 30.4084 225.69C24.4764 223.217 19.322 219.853 14.945 215.598C10.6256 211.342 7.19894 206.339 4.66491 200.589C2.18847 194.895 0.950249 188.771 0.95025 182.215C0.95025 175.717 2.18847 169.593 4.66491 163.842C7.19895 158.149 10.6256 153.146 14.945 148.833C19.322 144.578 24.4764 141.214 30.4084 138.741C36.3979 136.268 42.8482 135.032 49.7592 135.032C56.7853 135.032 63.2932 136.268 69.2827 138.741C75.2722 141.214 80.4267 144.578 84.7461 148.833C89.123 153.146 92.5497 158.149 95.0262 163.842C97.5026 169.593 98.7408 175.717 98.7408 182.215C98.7408 188.771 97.5602 194.895 95.1989 200.589C92.8953 206.339 89.5838 211.342 85.2644 215.598C81.0026 219.853 75.8482 223.217 69.801 225.69C63.8115 228.163 57.1309 229.399 49.7592 229.399ZM49.7592 205.678C53.5602 205.678 56.9869 205.045 60.0393 203.78C63.1492 202.573 65.7984 200.905 67.9869 198.777C70.233 196.649 71.9319 194.148 73.0838 191.273C74.2932 188.455 74.8979 185.436 74.8979 182.215C74.8979 178.995 74.2932 175.947 73.0838 173.072C71.9319 170.254 70.233 167.781 67.9869 165.654C65.7984 163.583 63.1492 161.944 60.0393 160.737C56.9869 159.529 53.5602 158.925 49.7592 158.925C46.1885 158.925 42.877 159.529 39.8246 160.737C36.7722 161.944 34.123 163.583 31.877 165.654C29.6309 167.781 27.8455 170.254 26.5209 173.072C25.2539 175.947 24.6204 178.995 24.6204 182.215C24.6204 185.436 25.2251 188.455 26.4345 191.273C27.644 194.148 29.3429 196.649 31.5314 198.777C33.7199 200.905 36.3691 202.573 39.479 203.78C42.589 205.045 46.0157 205.678 49.7592 205.678Z" fill="#282828"/>
<path d="M2.678 265.973L2.678 242.424L95.1989 242.424L95.1989 248.117L86.2146 255.881C89.6701 259.676 92.3194 263.96 94.1623 268.733C96.0628 273.564 97.0131 278.595 97.0131 283.829C97.0131 289.464 95.9188 294.783 93.7304 299.786C91.5995 304.789 88.6335 309.16 84.8324 312.898C81.089 316.636 76.6832 319.569 71.6152 321.696C66.6047 323.881 61.2487 324.974 55.5471 324.974L2.678 324.974L2.678 301.425L55.5471 301.425C57.966 301.425 60.2408 300.965 62.3717 300.045C64.5602 299.125 66.4607 297.86 68.0733 296.25C69.6859 294.64 70.9529 292.771 71.8743 290.643C72.7958 288.515 73.2565 286.244 73.2565 283.829C73.2565 281.356 72.7958 279.027 71.8743 276.842C70.9529 274.656 69.6859 272.759 68.0733 271.148C66.4607 269.538 64.5602 268.273 62.3717 267.353C60.2408 266.433 57.966 265.973 55.5471 265.973L2.678 265.973Z" fill="#282828"/>
<path d="M2.67799 386.908C2.67799 381.215 3.74344 375.867 5.87433 370.864C8.06281 365.861 11.0288 361.462 14.7722 357.666C18.5733 353.928 22.979 350.967 27.9895 348.782C33 346.654 38.356 345.59 44.0576 345.59L71.5288 345.59L71.5288 334.118L95.0262 334.118L95.0262 345.59L132 345.59L132 369.052L95.0262 369.052L95.0262 404.764L71.5288 404.764L71.5288 369.052L44.0576 369.052C41.5811 369.052 39.2487 369.513 37.0602 370.433C34.9293 371.353 33.0576 372.618 31.445 374.228C29.8324 375.838 28.5366 377.736 27.5576 379.921C26.6361 382.106 26.1754 384.435 26.1754 386.908L26.1754 404.764L2.67799 404.764L2.67799 386.908Z" fill="#282828"/>
<path d="M2.67799 507.498L2.67799 501.805L15.3769 492.662C13.3612 490.419 11.4607 488.032 9.67537 485.502C7.94762 483.029 6.42144 480.413 5.09684 477.653C3.82981 474.892 2.82197 472.046 2.07327 469.113C1.32458 466.238 0.950237 463.305 0.950237 460.315C0.950238 453.816 2.04448 447.692 4.23296 441.941C6.42145 436.248 9.58899 431.245 13.7356 426.932C17.9398 422.677 23.0654 419.313 29.1125 416.84C35.1597 414.367 42.0419 413.131 49.7591 413.131C56.9581 413.131 63.5523 414.367 69.5419 416.84C75.589 419.313 80.7722 422.677 85.0916 426.932C89.411 431.245 92.7513 436.248 95.1125 441.941C97.5314 447.692 98.7408 453.816 98.7408 460.315C98.7408 463.305 98.3665 466.266 97.6178 469.199C96.8691 472.132 95.8324 474.979 94.5078 477.739C93.1832 480.499 91.6283 483.116 89.8429 485.588C88.0576 488.119 86.1282 490.476 84.055 492.662L95.0262 501.805L95.0262 507.498L2.67799 507.498ZM49.7591 483.777C52.9843 483.777 56.0942 483.144 59.089 481.879C62.1413 480.672 64.8193 479.004 67.123 476.876C69.4843 474.749 71.356 472.247 72.7382 469.372C74.178 466.554 74.8979 463.535 74.8979 460.315C74.8979 457.094 74.3508 454.046 73.2565 451.171C72.1623 448.353 70.5497 445.881 68.4188 443.753C66.2879 441.683 63.6387 440.044 60.4712 438.836C57.3612 437.628 53.7906 437.025 49.7591 437.025C45.7277 437.025 42.1283 437.628 38.9607 438.836C35.8508 440.044 33.2303 441.683 31.0995 443.753C28.9686 445.881 27.356 448.353 26.2618 451.171C25.1675 454.046 24.6204 457.094 24.6204 460.315C24.6204 463.535 25.3115 466.554 26.6937 469.372C28.1335 472.247 30.0052 474.749 32.3089 476.876C34.6701 479.004 37.3481 480.672 40.3429 481.879C43.3953 483.144 46.534 483.777 49.7591 483.777Z" fill="#282828"/>
<path d="M76.7984 606.265L59.4345 589.013C61.8534 588.15 64.0131 586.972 65.9136 585.476C67.8717 583.981 69.5131 582.285 70.8377 580.387C72.1623 578.547 73.1701 576.534 73.8612 574.349C74.5523 572.164 74.8979 569.921 74.8979 567.621C74.8979 564.4 74.2356 561.353 72.911 558.477C71.5864 555.66 69.7146 553.187 67.2958 551.059C64.9345 548.989 62.1125 547.35 58.8298 546.142C55.5471 544.935 51.9188 544.331 47.945 544.331C44.7199 544.331 41.6963 544.935 38.8743 546.142C36.0523 547.35 33.5759 548.989 31.445 551.059C29.3141 553.187 27.644 555.66 26.4345 558.477C25.2251 561.353 24.6204 564.4 24.6204 567.621C24.6204 569.921 24.9371 572.135 25.5707 574.263C26.2042 576.39 27.0968 578.374 28.2487 580.215C29.4581 582.112 30.8979 583.78 32.568 585.218C34.2958 586.713 36.1963 587.92 38.2696 588.841L20.9057 606.092C17.7958 603.907 15.0026 601.377 12.5262 598.502C10.0497 595.684 7.94761 592.607 6.21987 589.272C4.49212 585.994 3.19631 582.515 2.33243 578.834C1.41097 575.212 0.950233 571.474 0.950233 567.621C0.950233 561.123 2.15966 554.998 4.57851 549.248C7.05495 543.554 10.4241 538.551 14.6858 534.239C18.9476 529.983 23.9293 526.619 29.6309 524.146C35.3324 521.673 41.4372 520.437 47.945 520.437C55.0288 520.437 61.6518 521.673 67.8141 524.146C73.9764 526.619 79.3324 529.983 83.8822 534.239C88.4895 538.551 92.1178 543.555 94.767 549.248C97.4162 554.998 98.7408 561.123 98.7408 567.621C98.7408 571.474 98.2513 575.24 97.2722 578.921C96.2932 582.659 94.8534 586.195 92.9529 589.531C91.1099 592.923 88.8351 596.029 86.1282 598.847C83.4214 601.722 80.3115 604.195 76.7984 606.265Z" fill="#282828"/>
<path d="M2.67798 664.145C2.67798 658.452 3.74343 653.104 5.87432 648.1C8.06279 643.097 11.0288 638.698 14.7722 634.903C18.5733 631.165 22.979 628.203 27.9895 626.018C33 623.89 38.356 622.827 44.0576 622.827L71.5288 622.827L71.5288 611.354L95.0262 611.354L95.0262 622.827L132 622.827L132 646.289L95.0261 646.289L95.0261 682L71.5288 682L71.5288 646.289L44.0576 646.289C41.5811 646.289 39.2487 646.749 37.0602 647.669C34.9293 648.589 33.0576 649.854 31.445 651.465C29.8324 653.075 28.5366 654.972 27.5576 657.158C26.6361 659.343 26.1754 661.672 26.1754 664.145L26.1754 682L2.67798 682L2.67798 664.145Z" fill="#282828"/>
<defs>
<clipPath id="clip0_287_166">
<rect width="52" height="52" fill="white" transform="translate(100 0.000244141)"/>
</clipPath>
</defs>
</svg>
