<svg width="176" height="176" viewBox="0 0 176 176" fill="none" xmlns="http://www.w3.org/2000/svg">
<rect width="176" height="176" rx="16" fill="#1C1C1C"/>
<path d="M56.8392 35.544V69H52.4712V53.832H35.4312V69H31.0632V35.544H35.4312V50.232H52.4712V35.544H56.8392ZM84.8896 35.544V39.096H75.7696V69H71.4016V39.096H62.2336V35.544H84.8896ZM124.202 35.784V69H119.834V44.232L108.794 69H105.722L94.6343 44.184V69H90.2663V35.784H94.9703L107.258 63.24L119.546 35.784H124.202ZM135.978 65.448H147.69V69H131.61V35.544H135.978V65.448ZM43.3531 124.248C43.3531 120.984 44.0891 118.056 45.5611 115.464C47.0331 112.84 49.0331 110.792 51.5611 109.32C54.1211 107.848 56.9531 107.112 60.0571 107.112C63.7051 107.112 66.8891 107.992 69.6091 109.752C72.3291 111.512 74.3131 114.008 75.5611 117.24H70.3291C69.4011 115.224 68.0571 113.672 66.2971 112.584C64.5691 111.496 62.4891 110.952 60.0571 110.952C57.7211 110.952 55.6251 111.496 53.7691 112.584C51.9131 113.672 50.4571 115.224 49.4011 117.24C48.3451 119.224 47.8171 121.56 47.8171 124.248C47.8171 126.904 48.3451 129.24 49.4011 131.256C50.4571 133.24 51.9131 134.776 53.7691 135.864C55.6251 136.952 57.7211 137.496 60.0571 137.496C62.4891 137.496 64.5691 136.968 66.2971 135.912C68.0571 134.824 69.4011 133.272 70.3291 131.256H75.5611C74.3131 134.456 72.3291 136.936 69.6091 138.696C66.8891 140.424 63.7051 141.288 60.0571 141.288C56.9531 141.288 54.1211 140.568 51.5611 139.128C49.0331 137.656 47.0331 135.624 45.5611 133.032C44.0891 130.44 43.3531 127.512 43.3531 124.248ZM92.6712 141.336C90.4632 141.336 88.4792 140.952 86.7192 140.184C84.9912 139.384 83.6312 138.296 82.6392 136.92C81.6472 135.512 81.1352 133.896 81.1032 132.072H85.7592C85.9192 133.64 86.5592 134.968 87.6792 136.056C88.8312 137.112 90.4952 137.64 92.6712 137.64C94.7512 137.64 96.3832 137.128 97.5672 136.104C98.7832 135.048 99.3912 133.704 99.3912 132.072C99.3912 130.792 99.0392 129.752 98.3352 128.952C97.6312 128.152 96.7512 127.544 95.6952 127.128C94.6392 126.712 93.2152 126.264 91.4232 125.784C89.2152 125.208 87.4392 124.632 86.0952 124.056C84.7832 123.48 83.6472 122.584 82.6872 121.368C81.7592 120.12 81.2952 118.456 81.2952 116.376C81.2952 114.552 81.7592 112.936 82.6872 111.528C83.6152 110.12 84.9112 109.032 86.5752 108.264C88.2712 107.496 90.2072 107.112 92.3832 107.112C95.5192 107.112 98.0792 107.896 100.063 109.464C102.079 111.032 103.215 113.112 103.471 115.704H98.6712C98.5112 114.424 97.8392 113.304 96.6552 112.344C95.4712 111.352 93.9032 110.856 91.9512 110.856C90.1272 110.856 88.6392 111.336 87.4872 112.296C86.3352 113.224 85.7592 114.536 85.7592 116.232C85.7592 117.448 86.0952 118.44 86.7672 119.208C87.4712 119.976 88.3192 120.568 89.3112 120.984C90.3352 121.368 91.7592 121.816 93.5832 122.328C95.7912 122.936 97.5672 123.544 98.9112 124.152C100.255 124.728 101.407 125.64 102.367 126.888C103.327 128.104 103.807 129.768 103.807 131.88C103.807 133.512 103.375 135.048 102.511 136.488C101.647 137.928 100.367 139.096 98.6712 139.992C96.9752 140.888 94.9752 141.336 92.6712 141.336ZM120.843 141.336C118.635 141.336 116.651 140.952 114.891 140.184C113.163 139.384 111.803 138.296 110.811 136.92C109.819 135.512 109.307 133.896 109.275 132.072H113.931C114.091 133.64 114.731 134.968 115.851 136.056C117.003 137.112 118.667 137.64 120.843 137.64C122.923 137.64 124.555 137.128 125.739 136.104C126.955 135.048 127.563 133.704 127.563 132.072C127.563 130.792 127.211 129.752 126.507 128.952C125.803 128.152 124.923 127.544 123.867 127.128C122.811 126.712 121.387 126.264 119.595 125.784C117.387 125.208 115.611 124.632 114.267 124.056C112.955 123.48 111.819 122.584 110.859 121.368C109.931 120.12 109.467 118.456 109.467 116.376C109.467 114.552 109.931 112.936 110.859 111.528C111.787 110.12 113.083 109.032 114.747 108.264C116.443 107.496 118.379 107.112 120.555 107.112C123.691 107.112 126.251 107.896 128.235 109.464C130.251 111.032 131.387 113.112 131.643 115.704H126.843C126.683 114.424 126.011 113.304 124.827 112.344C123.643 111.352 122.075 110.856 120.123 110.856C118.299 110.856 116.811 111.336 115.659 112.296C114.507 113.224 113.931 114.536 113.931 116.232C113.931 117.448 114.267 118.44 114.939 119.208C115.643 119.976 116.491 120.568 117.483 120.984C118.507 121.368 119.931 121.816 121.755 122.328C123.963 122.936 125.739 123.544 127.083 124.152C128.427 124.728 129.579 125.64 130.539 126.888C131.499 128.104 131.979 129.768 131.979 131.88C131.979 133.512 131.547 135.048 130.683 136.488C129.819 137.928 128.539 139.096 126.843 139.992C125.147 140.888 123.147 141.336 120.843 141.336Z" fill="white"/>
</svg>
