<svg width="201" height="48" viewBox="0 0 201 48" fill="none" xmlns="http://www.w3.org/2000/svg">
<g clip-path="url(#clip0_25_173)">
<path d="M0.986328 24.8968H44.3291V35.9058C44.3291 41.9821 39.3963 46.9148 33.32 46.9148H0.986328V24.8968Z" fill="white"/>
<path d="M46.6299 24.8968H78.9636C85.0399 24.8968 89.9726 29.8295 89.9726 35.9058C89.9726 41.9821 85.0399 46.9148 78.9636 46.9148H46.6299V24.8968Z" fill="white"/>
<path d="M46.6299 0.578308H78.9636C85.0399 0.578308 89.9726 5.51101 89.9726 11.5873C89.9726 17.6637 85.0399 22.5964 78.9636 22.5964H46.6299V0.578308Z" fill="white"/>
<path d="M44.3291 22.5931L0.986378 22.5931V11.584C0.986378 5.50772 5.91908 0.575014 11.9954 0.575014L44.3291 0.575014V22.5931Z" fill="white"/>
<path d="M103.317 10.6704C103.317 9.96718 103.452 9.30335 103.722 8.68553C103.991 8.06771 104.356 7.52876 104.819 7.0654C105.283 6.60203 105.822 6.23725 106.439 5.96778C107.057 5.69831 107.718 5.56357 108.424 5.56357H116.239V8.97144H108.424C108.188 8.97144 107.964 9.01416 107.76 9.10289C107.553 9.19162 107.376 9.30993 107.221 9.46438C107.067 9.61883 106.945 9.79958 106.86 10.0033C106.775 10.2104 106.729 10.4305 106.729 10.6672C106.729 10.9038 106.771 11.1272 106.86 11.3376C106.949 11.5479 107.067 11.7286 107.221 11.8831C107.376 12.0375 107.557 12.1591 107.76 12.2446C107.967 12.3333 108.188 12.376 108.424 12.376H111.832C112.535 12.376 113.199 12.5075 113.82 12.7737C114.441 13.0399 114.984 13.4046 115.447 13.8647C115.91 14.3281 116.275 14.8703 116.541 15.4914C116.808 16.1125 116.939 16.7763 116.939 17.4796C116.939 18.1829 116.808 18.8467 116.541 19.4645C116.275 20.0823 115.91 20.6213 115.447 21.0847C114.984 21.548 114.441 21.9128 113.82 22.1823C113.199 22.4518 112.535 22.5865 111.832 22.5865H104.267V19.1786H111.832C112.069 19.1786 112.292 19.1359 112.496 19.0472C112.703 18.9617 112.88 18.8401 113.035 18.6857C113.189 18.5312 113.311 18.3505 113.396 18.1467C113.482 17.9397 113.528 17.7195 113.528 17.4829C113.528 17.2463 113.485 17.0228 113.396 16.8191C113.308 16.612 113.189 16.4346 113.035 16.2801C112.88 16.1257 112.7 16.0041 112.496 15.9186C112.289 15.8332 112.069 15.7872 111.832 15.7872H108.424C107.721 15.7872 107.057 15.6524 106.439 15.383C105.822 15.1135 105.283 14.7487 104.819 14.2854C104.356 13.822 103.991 13.2797 103.722 12.6586C103.452 12.0375 103.317 11.3737 103.317 10.6704Z" fill="white"/>
<path d="M125.228 19.481C125.353 19.5204 125.481 19.5467 125.609 19.5599C125.734 19.573 125.862 19.5763 125.99 19.5763C126.306 19.5763 126.611 19.5336 126.904 19.4448C127.196 19.3594 127.472 19.2345 127.729 19.0702C127.985 18.9092 128.215 18.7087 128.419 18.4754C128.619 18.2421 128.783 17.9824 128.912 17.6965L131.288 20.0824C130.985 20.5096 130.64 20.8941 130.249 21.2326C129.858 21.5743 129.434 21.8635 128.977 22.1002C128.521 22.3368 128.044 22.5175 127.541 22.6391C127.038 22.7607 126.523 22.8231 125.99 22.8231C125.096 22.8231 124.255 22.6555 123.466 22.3236C122.678 21.9917 121.991 21.5283 121.399 20.9335C120.808 20.3387 120.344 19.6322 120.003 18.8139C119.661 17.9956 119.493 17.0951 119.493 16.1126C119.493 15.13 119.664 14.1901 120.003 13.3587C120.344 12.5272 120.808 11.8174 121.399 11.2324C121.987 10.6475 122.678 10.1907 123.466 9.86534C124.255 9.53999 125.096 9.37897 125.99 9.37897C126.519 9.37897 127.038 9.44141 127.545 9.56957C128.051 9.69774 128.53 9.87848 128.987 10.1151C129.444 10.3517 129.868 10.6442 130.266 10.9892C130.66 11.3343 131.008 11.7188 131.311 12.146L125.231 19.4744L125.228 19.481ZM126.891 12.7967C126.739 12.7408 126.592 12.7047 126.444 12.6882C126.296 12.6718 126.145 12.6652 125.987 12.6652C125.543 12.6652 125.126 12.7474 124.735 12.9084C124.344 13.0695 124.002 13.3028 123.713 13.6018C123.424 13.9009 123.197 14.2657 123.029 14.6896C122.862 15.1135 122.779 15.59 122.779 16.1191C122.779 16.2374 122.786 16.3722 122.796 16.5233C122.809 16.6745 122.829 16.8257 122.855 16.9801C122.881 17.1346 122.917 17.2825 122.957 17.4271C122.996 17.5684 123.049 17.6965 123.111 17.8083L126.887 12.7967H126.891Z" fill="white"/>
<path d="M154.466 6.41802C154.466 6.72035 154.41 6.99969 154.295 7.26259C154.18 7.52549 154.022 7.75225 153.825 7.94614C153.628 8.14003 153.394 8.29448 153.131 8.4095C152.865 8.52452 152.583 8.58039 152.284 8.58039C151.985 8.58039 151.699 8.52452 151.436 8.4095C151.17 8.29448 150.939 8.14003 150.746 7.94614C150.552 7.75225 150.397 7.52549 150.282 7.26259C150.167 7.00297 150.111 6.72035 150.111 6.41802C150.111 6.11568 150.167 5.8462 150.282 5.58002C150.397 5.31383 150.552 5.08379 150.746 4.8899C150.939 4.69601 151.17 4.54155 151.436 4.42653C151.702 4.31151 151.985 4.25565 152.284 4.25565C152.583 4.25565 152.869 4.3148 153.131 4.42653C153.398 4.54155 153.628 4.69601 153.825 4.8899C154.022 5.08379 154.18 5.31383 154.295 5.58002C154.41 5.8462 154.466 6.12554 154.466 6.41802ZM153.907 22.5931H150.64V9.87518H153.907V22.5964V22.5931Z" fill="white"/>
<path d="M170.305 22.5931H169.52L168.261 20.8481C167.952 21.1241 167.627 21.3837 167.282 21.6269C166.937 21.8701 166.576 22.0771 166.194 22.2579C165.813 22.4353 165.425 22.5766 165.024 22.6785C164.623 22.7804 164.219 22.833 163.808 22.833C162.915 22.833 162.073 22.6654 161.285 22.3269C160.496 21.9917 159.809 21.525 159.218 20.9269C158.626 20.3288 158.163 19.619 157.821 18.8007C157.479 17.9824 157.312 17.0886 157.312 16.1224C157.312 15.1562 157.482 14.2755 157.821 13.4506C158.163 12.6258 158.626 11.9159 159.218 11.3113C159.806 10.7099 160.496 10.2399 161.285 9.89817C162.073 9.5564 162.915 9.3888 163.808 9.3888C164.094 9.3888 164.387 9.4118 164.693 9.4611C164.998 9.51039 165.294 9.58598 165.583 9.69442C165.872 9.80287 166.142 9.9409 166.398 10.1151C166.651 10.2892 166.865 10.5028 167.039 10.7559V4.8143H170.305V22.5931ZM167.042 16.1224C167.042 15.6787 166.957 15.2482 166.786 14.8342C166.615 14.4201 166.385 14.052 166.092 13.73C165.8 13.4079 165.458 13.1516 165.064 12.9577C164.673 12.7638 164.255 12.6652 163.812 12.6652C163.368 12.6652 162.951 12.7441 162.56 12.9018C162.169 13.0596 161.827 13.2863 161.538 13.5854C161.248 13.8844 161.022 14.2459 160.854 14.6731C160.687 15.1004 160.604 15.5834 160.604 16.1224C160.604 16.589 160.687 17.0327 160.854 17.4533C161.022 17.874 161.248 18.242 161.538 18.5575C161.827 18.873 162.169 19.1228 162.56 19.3068C162.951 19.4875 163.368 19.5795 163.812 19.5795C164.255 19.5795 164.673 19.4842 165.064 19.2904C165.455 19.0965 165.797 18.8401 166.092 18.5181C166.388 18.196 166.618 17.828 166.786 17.4139C166.957 16.9998 167.042 16.5693 167.042 16.1257V16.1224Z" fill="white"/>
<path d="M179.175 19.481C179.3 19.5204 179.428 19.5467 179.556 19.5599C179.681 19.573 179.809 19.5763 179.937 19.5763C180.253 19.5763 180.559 19.5336 180.851 19.4448C181.143 19.3594 181.42 19.2345 181.676 19.0702C181.932 18.9092 182.162 18.7087 182.366 18.4754C182.566 18.2421 182.731 17.9824 182.859 17.6965L185.235 20.0824C184.933 20.5096 184.587 20.8941 184.196 21.2326C183.805 21.5743 183.381 21.8635 182.925 22.1002C182.468 22.3368 181.991 22.5175 181.489 22.6391C180.986 22.7607 180.47 22.8231 179.937 22.8231C179.044 22.8231 178.202 22.6555 177.414 22.3236C176.625 21.9917 175.938 21.5283 175.346 20.9335C174.755 20.3387 174.292 19.6322 173.95 18.8139C173.608 17.9956 173.44 17.0951 173.44 16.1126C173.44 15.13 173.611 14.1901 173.95 13.3587C174.292 12.5272 174.755 11.8174 175.346 11.2324C175.935 10.6475 176.625 10.1907 177.414 9.86534C178.202 9.53999 179.044 9.37897 179.937 9.37897C180.466 9.37897 180.986 9.44141 181.492 9.56957C181.998 9.69774 182.478 9.87848 182.934 10.1151C183.391 10.3517 183.815 10.6442 184.213 10.9892C184.607 11.3343 184.956 11.7188 185.258 12.146L179.178 19.4744L179.175 19.481ZM180.838 12.7967C180.687 12.7408 180.539 12.7047 180.391 12.6882C180.243 12.6718 180.092 12.6652 179.934 12.6652C179.49 12.6652 179.073 12.7474 178.682 12.9084C178.291 13.0695 177.949 13.3028 177.66 13.6018C177.371 13.9009 177.144 14.2657 176.976 14.6896C176.809 15.1135 176.727 15.59 176.727 16.1191C176.727 16.2374 176.733 16.3722 176.743 16.5233C176.756 16.6745 176.776 16.8257 176.802 16.9801C176.829 17.1346 176.865 17.2825 176.904 17.4271C176.944 17.5684 176.996 17.6965 177.059 17.8083L180.835 12.7967H180.838Z" fill="white"/>
<path d="M191.462 22.5931H188.219V4.8143H191.462V10.4306C191.85 10.1381 192.251 9.93104 192.662 9.80616C193.073 9.68457 193.493 9.62213 193.92 9.62213C194.703 9.62213 195.442 9.77001 196.129 10.0691C196.819 10.3648 197.417 10.7723 197.93 11.2916C198.442 11.8108 198.843 12.4155 199.142 13.1089C199.438 13.8023 199.586 14.5384 199.586 15.3238V22.5931H196.319V15.3238H196.342C196.342 14.9919 196.28 14.6764 196.152 14.3807C196.024 14.0849 195.849 13.8253 195.629 13.6018C195.409 13.3816 195.15 13.2042 194.857 13.0793C194.565 12.9544 194.252 12.8887 193.917 12.8887C193.582 12.8887 193.257 12.9511 192.954 13.0793C192.652 13.2075 192.392 13.3816 192.172 13.6018C191.952 13.822 191.775 14.0816 191.65 14.3807C191.521 14.6764 191.459 14.9919 191.459 15.3238V22.5931H191.462Z" fill="white"/>
<path d="M117.938 41.568C117.938 42.2713 117.803 42.9351 117.534 43.5529C117.264 44.1708 116.9 44.7097 116.436 45.1731C115.973 45.6364 115.434 46.0012 114.816 46.2707C114.198 46.5402 113.538 46.6749 112.831 46.6749H104.316V29.6454H112.831C113.534 29.6454 114.198 29.7802 114.816 30.0496C115.434 30.3191 115.973 30.6839 116.436 31.1472C116.9 31.6106 117.264 32.1496 117.534 32.7674C117.803 33.3852 117.938 34.0457 117.938 34.7523C117.938 35.0678 117.895 35.3931 117.807 35.725C117.718 36.0569 117.596 36.379 117.439 36.6879C117.281 36.9968 117.09 37.2762 116.867 37.5325C116.643 37.7888 116.4 37.9958 116.131 38.1634C116.407 38.3146 116.656 38.5184 116.88 38.7747C117.103 39.031 117.291 39.3136 117.452 39.6226C117.609 39.9315 117.731 40.2535 117.813 40.592C117.895 40.9272 117.938 41.2558 117.938 41.5713V41.568ZM107.724 36.4612H112.831C113.068 36.4612 113.291 36.4184 113.495 36.3297C113.702 36.2443 113.879 36.1227 114.034 35.9682C114.188 35.8138 114.31 35.633 114.395 35.4227C114.481 35.2124 114.527 34.9889 114.527 34.7523C114.527 34.5157 114.484 34.2922 114.395 34.0885C114.307 33.8814 114.188 33.704 114.034 33.5495C113.879 33.3951 113.699 33.2735 113.495 33.188C113.288 33.1026 113.068 33.0566 112.831 33.0566H107.724V36.4644V36.4612ZM107.724 43.267H112.831C113.068 43.267 113.291 43.2243 113.495 43.1356C113.702 43.0501 113.879 42.9286 114.034 42.7741C114.188 42.6196 114.31 42.4389 114.395 42.2352C114.481 42.0281 114.527 41.8079 114.527 41.5713C114.527 41.3347 114.484 41.1112 114.395 40.9075C114.307 40.7005 114.188 40.523 114.034 40.3685C113.879 40.2141 113.699 40.0925 113.495 40.0071C113.288 39.9216 113.068 39.8756 112.831 39.8756H107.724V43.2736V43.267Z" fill="white"/>
<path d="M132.464 40.2043C132.464 41.154 132.293 42.038 131.954 42.8596C131.613 43.6779 131.149 44.3877 130.564 44.9858C129.979 45.5839 129.292 46.0538 128.504 46.3989C127.715 46.744 126.87 46.9148 125.967 46.9148C125.063 46.9148 124.232 46.744 123.443 46.3989C122.654 46.0538 121.967 45.5839 121.376 44.9858C120.784 44.3877 120.321 43.6779 119.979 42.8596C119.637 42.0413 119.47 41.154 119.47 40.2043C119.47 39.2545 119.641 38.3442 119.979 37.5194C120.321 36.6945 120.784 35.9847 121.376 35.3866C121.967 34.7885 122.654 34.3185 123.443 33.98C124.232 33.6416 125.073 33.4707 125.967 33.4707C126.861 33.4707 127.715 33.6317 128.504 33.9505C129.292 34.2692 129.979 34.726 130.564 35.3176C131.149 35.9058 131.613 36.6156 131.954 37.4438C132.296 38.2719 132.464 39.1921 132.464 40.2043ZM129.197 40.2043C129.197 39.6817 129.112 39.2085 128.941 38.7846C128.77 38.3607 128.54 37.9959 128.247 37.6903C127.955 37.3846 127.613 37.1513 127.219 36.9903C126.828 36.8292 126.41 36.7471 125.967 36.7471C125.523 36.7471 125.106 36.8292 124.715 36.9903C124.324 37.1513 123.982 37.3879 123.693 37.6903C123.403 37.9959 123.177 38.3607 123.009 38.7846C122.841 39.2085 122.759 39.6817 122.759 40.2043C122.759 40.6939 122.841 41.1507 123.009 41.5713C123.177 41.992 123.403 42.3535 123.693 42.6657C123.982 42.9746 124.324 43.2178 124.715 43.3952C125.106 43.5727 125.523 43.6614 125.967 43.6614C126.41 43.6614 126.828 43.5793 127.219 43.4117C127.61 43.2441 127.952 43.0107 128.247 42.7117C128.543 42.4126 128.773 42.0479 128.941 41.6174C129.108 41.1869 129.197 40.7202 129.197 40.2043Z" fill="white"/>
<path d="M147.571 46.6749H144.327V33.9537H145.109L146.177 35.1894C146.7 34.7129 147.291 34.3481 147.952 34.0918C148.612 33.8354 149.303 33.7073 150.026 33.7073C150.801 33.7073 151.534 33.8552 152.224 34.1542C152.914 34.45 153.516 34.8575 154.028 35.3767C154.541 35.8959 154.948 36.5006 155.247 37.194C155.543 37.8874 155.691 38.6235 155.691 39.409V46.6782H152.448V39.409C152.448 39.0771 152.385 38.7616 152.257 38.4658C152.129 38.17 151.955 37.9104 151.734 37.687C151.514 37.4668 151.255 37.2893 150.962 37.1644C150.67 37.0396 150.357 36.9738 150.022 36.9738C149.687 36.9738 149.362 37.0363 149.059 37.1644C148.757 37.2926 148.497 37.4668 148.277 37.687C148.057 37.9071 147.88 38.1668 147.755 38.4658C147.627 38.7616 147.564 39.0771 147.564 39.409V46.6782L147.571 46.6749Z" fill="white"/>
<path d="M170.311 46.6749H169.526L168.267 44.9299C167.958 45.206 167.633 45.4656 167.288 45.7088C166.943 45.952 166.581 46.159 166.2 46.3397C165.819 46.5172 165.431 46.6585 165.03 46.7604C164.629 46.8623 164.225 46.9148 163.814 46.9148C162.92 46.9148 162.079 46.7637 161.29 46.4646C160.502 46.1656 159.815 45.7252 159.223 45.1534C158.632 44.5816 158.169 43.875 157.827 43.0436C157.485 42.2122 157.317 41.2657 157.317 40.2043C157.317 39.2151 157.488 38.3048 157.827 37.4799C158.169 36.6518 158.632 35.942 159.223 35.3471C159.812 34.7523 160.502 34.2922 161.29 33.9636C162.079 33.635 162.92 33.4707 163.814 33.4707C164.225 33.4707 164.633 33.5233 165.037 33.6251C165.441 33.727 165.832 33.8716 166.213 34.0523C166.595 34.2331 166.956 34.45 167.301 34.6932C167.646 34.9396 167.968 35.2025 168.271 35.4884L169.529 33.98H170.315V46.6749H170.311ZM167.048 40.2043C167.048 39.7606 166.963 39.3301 166.792 38.916C166.621 38.502 166.391 38.1339 166.098 37.8118C165.806 37.4898 165.464 37.2335 165.07 37.0396C164.679 36.8457 164.261 36.7471 163.818 36.7471C163.374 36.7471 162.957 36.8227 162.566 36.9738C162.175 37.125 161.833 37.3452 161.544 37.6377C161.254 37.9302 161.028 38.2916 160.86 38.7254C160.692 39.1592 160.61 39.6489 160.61 40.2043C160.61 40.7596 160.692 41.2526 160.86 41.6831C161.028 42.1136 161.254 42.4784 161.544 42.7708C161.833 43.0633 162.175 43.2868 162.566 43.4347C162.957 43.5858 163.374 43.6614 163.818 43.6614C164.261 43.6614 164.679 43.5661 165.07 43.3722C165.461 43.1783 165.803 42.922 166.098 42.6C166.394 42.2779 166.624 41.9098 166.792 41.4958C166.963 41.0817 167.048 40.6512 167.048 40.2075V40.2043Z" fill="white"/>
<path d="M146.746 13.3718C146.404 12.5436 145.941 11.8371 145.349 11.2521C144.761 10.6639 144.071 10.2104 143.282 9.89162C142.497 9.56957 141.655 9.40854 140.762 9.40854C140.347 9.40854 139.94 9.46112 139.536 9.56299C139.132 9.66816 138.744 9.80946 138.366 9.98692C137.991 10.1644 137.63 10.378 137.281 10.6212C136.933 10.8676 136.611 11.1273 136.318 11.4066L135.024 9.8719H134.238V32.8627H135.55L135.842 33.2801L136.322 33.9538C136.693 33.7171 137.087 33.5167 137.505 33.3524V21.7387C137.751 21.88 138.008 22.018 138.271 22.1527C138.537 22.2875 138.806 22.4091 139.079 22.5142C139.352 22.6227 139.628 22.7081 139.91 22.7705C140.193 22.833 140.476 22.8658 140.762 22.8658C141.655 22.8658 142.497 22.7114 143.282 22.4025C144.071 22.0936 144.761 21.6499 145.349 21.0683C145.941 20.4866 146.404 19.7767 146.746 18.942C147.084 18.1073 147.255 17.1642 147.255 16.1191C147.255 15.0741 147.084 14.1999 146.746 13.3718ZM143.745 17.5322C143.578 17.9627 143.345 18.3242 143.052 18.6265C142.76 18.9289 142.415 19.1622 142.02 19.3265C141.623 19.4941 141.202 19.5763 140.762 19.5763C140.321 19.5763 139.901 19.4941 139.506 19.3265C139.115 19.1622 138.773 18.9289 138.481 18.6265C138.185 18.3242 137.955 17.9627 137.784 17.5322C137.613 17.105 137.531 16.6351 137.531 16.1191C137.531 15.6032 137.613 15.1004 137.784 14.6699C137.955 14.2427 138.185 13.8812 138.481 13.5854C138.773 13.2863 139.115 13.0596 139.506 12.9019C139.901 12.7441 140.318 12.6652 140.762 12.6652C141.205 12.6652 141.623 12.7441 142.02 12.9019C142.415 13.0596 142.76 13.2863 143.052 13.5854C143.345 13.8812 143.578 14.2427 143.745 14.6699C143.916 15.1004 144.002 15.5835 144.002 16.1191C144.002 16.6548 143.916 17.105 143.745 17.5322Z" fill="white"/>
<path d="M142.819 33.98V37.2104H139.957C139.615 37.2104 139.296 37.2729 138.994 37.401C138.691 37.5259 138.432 37.7001 138.212 37.9236C137.988 38.1437 137.814 38.4066 137.689 38.7057C137.561 39.008 137.498 39.3268 137.498 39.6686V46.6749H134.255V33.9537H135.04L136.108 35.4621C136.529 35.0809 136.996 34.7687 137.505 34.5321C137.63 34.4697 137.758 34.4138 137.89 34.3645C138.553 34.1082 139.243 33.98 139.957 33.98H142.819Z" fill="white"/>
</g>
<defs>
<clipPath id="clip0_25_173">
<rect width="200.795" height="47.49" fill="white"/>
</clipPath>
</defs>
</svg>
