<svg width="52" height="52" viewBox="0 0 52 52" fill="none" xmlns="http://www.w3.org/2000/svg">
<g clip-path="url(#clip0_41_32)">
<path d="M0 21.3751H13.5833C16.1359 21.3751 18.2081 23.4474 18.2081 26C18.2081 28.5526 16.1359 30.6249 13.5833 30.6249H0V21.3751Z" fill="#E55B3C"/>
<path d="M10.8857 4.34572L20.4906 13.9506C22.2956 15.7555 22.2956 18.6861 20.4906 20.4911C18.6856 22.2961 15.755 22.2961 13.95 20.4911L4.3452 10.8863L10.8857 4.34572Z" fill="#E55B3C"/>
<path d="M30.625 0V13.5833C30.625 16.1359 28.5528 18.2081 26.0001 18.2081C23.4475 18.2081 21.3753 16.1359 21.3753 13.5833V0L30.625 0Z" fill="#E55B3C"/>
<path d="M47.6562 10.8857L38.0514 20.4906C36.2464 22.2956 33.3159 22.2956 31.5109 20.4906C29.7059 18.6856 29.7059 15.755 31.5109 13.95L41.1157 4.3452L47.6562 10.8857Z" fill="#E55B3C"/>
<path d="M52 30.6249H38.4167C35.8641 30.6249 33.7919 28.5526 33.7919 26C33.7919 23.4474 35.8641 21.3751 38.4167 21.3751H52V30.6249Z" fill="#E55B3C"/>
<path d="M41.1152 47.655L31.5104 38.0501C29.7054 36.2451 29.7054 33.3146 31.5104 31.5096C33.3154 29.7046 36.2459 29.7046 38.0509 31.5096L47.6558 41.1144L41.1152 47.655Z" fill="#E55B3C"/>
<path d="M21.375 52V38.4167C21.375 35.8641 23.4472 33.7919 25.9999 33.7919C28.5525 33.7919 30.6247 35.8641 30.6247 38.4167V52H21.375Z" fill="#E55B3C"/>
<path d="M4.34473 41.1136L13.9496 31.5087C15.7546 29.7037 18.6851 29.7037 20.4901 31.5087C22.2951 33.3137 22.2951 36.2443 20.4901 38.0493L10.8853 47.6541L4.34473 41.1136Z" fill="#E55B3C"/>
</g>
<defs>
<clipPath id="clip0_41_32">
<rect width="52" height="52" fill="white"/>
</clipPath>
</defs>
</svg>
