<svg width="433" height="433" viewBox="0 0 433 433" fill="none" xmlns="http://www.w3.org/2000/svg">
<g clip-path="url(#clip0_26_297)">
<path d="M0 177.989H113.107C134.363 177.989 151.618 195.244 151.618 216.5C151.618 237.756 134.363 255.011 113.107 255.011H0V177.989Z" fill="#282828"/>
<path d="M90.6445 36.1865L170.623 116.165C185.653 131.195 185.653 155.598 170.623 170.628C155.593 185.658 131.191 185.658 116.161 170.628L36.182 90.6491L90.6445 36.1865Z" fill="#282828"/>
<path d="M255.012 0V113.107C255.012 134.363 237.757 151.618 216.501 151.618C195.245 151.618 177.99 134.363 177.99 113.107V0L255.012 0Z" fill="#282828"/>
<path d="M396.827 90.6447L316.848 170.623C301.818 185.653 277.416 185.653 262.386 170.623C247.356 155.593 247.356 131.191 262.386 116.161L342.365 36.1821L396.827 90.6447Z" fill="#282828"/>
<path d="M433 255.011H319.893C298.637 255.011 281.382 237.756 281.382 216.5C281.382 195.244 298.637 177.989 319.893 177.989H433V255.011Z" fill="#282828"/>
<path d="M342.36 396.819L262.382 316.841C247.352 301.81 247.352 277.408 262.382 262.378C277.412 247.348 301.814 247.348 316.844 262.378L396.823 342.357L342.36 396.819Z" fill="#282828"/>
<path d="M177.988 433V319.893C177.988 298.637 195.243 281.382 216.499 281.382C237.755 281.382 255.01 298.637 255.01 319.893V433H177.988Z" fill="#282828"/>
<path d="M36.1807 342.35L116.159 262.371C131.189 247.341 155.592 247.341 170.622 262.371C185.652 277.401 185.652 301.803 170.622 316.833L90.6432 396.812L36.1807 342.35Z" fill="#282828"/>
</g>
<defs>
<clipPath id="clip0_26_297">
<rect width="433" height="433" fill="white"/>
</clipPath>
</defs>
</svg>
